<svg xmlns="http://www.w3.org/2000/svg" width="396" height="106" viewBox="0 0 396 106" fill="none"><path d="M68.6803 52.7802C71.6603 50.0702 74.3903 46.5102 76.3303 41.8202C79.9803 33.0202 79.0903 23.2802 73.8703 15.1002C68.7403 7.05016 60.2303 2.02016 51.1103 1.63016C33.7903 0.900157 2.60027 0.910163 2.38027 0.910163H0.280273V44.7402V61.5302V61.6302L12.2203 61.5402V61.5502L20.1003 61.4902C21.9203 61.4902 24.5003 61.4702 27.4303 61.4302L39.0203 61.3502C41.5903 61.3502 44.0603 61.3702 46.2103 61.4302C50.5503 61.5402 54.3603 64.4502 56.7203 68.2002C58.9503 71.7402 59.3003 75.9202 57.6803 79.6602C54.1203 87.9002 44.9203 88.4502 44.5903 88.4702L20.1303 88.6402V88.6502H20.0603V105.23H20.1303V105.32L48.5003 105.12C48.7003 105.11 68.6703 104.08 76.3203 85.6502C79.9703 76.8502 79.0803 67.1102 73.8603 58.9302C72.4003 56.6102 70.6503 54.5502 68.6803 52.7802ZM20.0503 57.2902L12.1703 57.3502V55.5702L46.6303 55.3302C46.6803 55.3302 46.8503 55.3202 47.1003 55.3002C47.5803 55.3202 48.0503 55.3402 48.5103 55.3602C50.1403 55.4302 51.7503 55.7302 53.2803 56.2402C50.4303 56.9902 48.4503 57.1102 48.4203 57.1102L45.6903 57.1302C35.7703 56.8002 25.2903 57.1902 20.0503 57.2902ZM47.0203 51.2802C35.4703 50.8502 18.0303 50.7902 12.1703 50.7802V48.9702C22.7403 49.0202 39.6703 49.1802 50.9403 49.6602C51.6203 49.6902 52.2903 49.7502 52.9603 49.8402C50.2703 50.8502 47.9903 51.1802 47.0203 51.2802ZM20.1403 44.8102V17.7002C25.1703 17.7102 38.0103 17.7702 46.0203 18.0902C50.3603 18.2702 54.3603 20.6102 56.7303 24.3702C58.9603 27.9102 59.3103 32.0902 57.6903 35.8302C54.1303 44.0702 44.9303 44.6202 44.6003 44.6402L20.1403 44.8102ZM54.1103 45.7602C56.9103 44.0902 59.7003 41.5002 61.4503 37.4602C63.6103 32.4602 63.1603 26.9002 60.2003 22.1902C57.1203 17.2902 51.8803 14.2302 46.1903 14.0002C37.0303 13.6302 21.2903 13.6002 18.2303 13.6002H16.0503V44.7802C14.6903 44.7702 13.3903 44.7602 12.1703 44.7602V10.9402C18.6603 10.9502 37.1603 11.0202 48.5003 11.5002C54.5103 11.7502 60.1403 15.1002 63.5503 20.4502C67.0203 25.8902 67.6203 32.3502 65.2003 38.1802C63.5603 42.1202 61.1103 44.8802 58.5103 46.8102C57.0803 46.3502 55.6103 45.9902 54.1103 45.7602ZM58.8303 51.4202C59.7703 51.8102 60.6803 52.2602 61.5703 52.7702C60.6103 53.3502 59.6503 53.8402 58.7103 54.2802C57.8103 53.7702 56.8803 53.3202 55.9303 52.9302C56.8803 52.5002 57.8503 52.0002 58.8303 51.4202ZM62.6803 48.5902C65.1103 46.4102 67.3203 43.5402 68.9003 39.7302C71.8303 32.6702 71.1103 24.8602 66.9303 18.3102C62.8203 11.8602 55.9903 7.82016 48.6703 7.51016C34.8803 6.93016 10.3403 6.95016 10.1603 6.94016L8.16027 6.95016V44.7502C6.68027 44.7502 5.43027 44.7402 4.48027 44.7402V5.11016C12.3303 5.12016 36.2803 5.20016 50.9303 5.82016C58.6803 6.15016 65.9303 10.4602 70.3303 17.3502C74.8003 24.3502 75.5703 32.6802 72.4503 40.2002C70.6603 44.5102 68.0803 47.7202 65.2603 50.1202C64.4303 49.5602 63.5603 49.0502 62.6803 48.5902ZM4.49027 57.4002V48.9502C5.43027 48.9502 6.68027 48.9502 8.17027 48.9602V50.7802V55.6002V57.3802L4.49027 57.4002ZM24.0303 92.7102L44.7003 92.5702C45.1903 92.5502 56.8503 91.9202 61.4503 81.2902C63.6103 76.2902 63.5603 70.8302 60.5903 65.9202C59.1503 63.5502 57.6603 61.4902 55.6103 59.9602C56.5403 59.6802 57.5403 59.3502 58.5703 58.9502C60.5003 60.3702 62.2003 62.1702 63.5603 64.2902C67.0303 69.7302 67.6303 76.1902 65.2103 82.0202C60.1003 94.3302 46.6103 95.1402 46.5303 95.1402L24.0403 95.3002V92.7102H24.0303ZM72.4603 84.0302C65.8803 99.8802 48.5303 100.91 48.4203 100.91L24.0303 101.08V99.3002L46.6303 99.1402C47.2903 99.1102 62.8103 98.2402 68.9003 83.5502C71.8303 76.4902 71.1103 68.6802 66.9303 62.1302C65.7103 60.2202 64.2503 58.5202 62.6103 57.0702C63.5103 56.5802 64.4303 56.0202 65.3303 55.4102C67.2403 57.0402 68.9403 58.9802 70.3403 61.1802C74.8003 68.1902 75.5803 76.5202 72.4603 84.0302Z" fill="white"></path><path d="M107.71 23.9394C107.71 28.6794 104.85 32.1794 96.5201 32.1794H85.3301V3.39941H96.3401C104.12 3.39941 106.79 6.61941 106.79 10.9994C106.79 14.0894 104.95 16.1594 101.63 17.2594C105.41 18.0894 107.71 20.5394 107.71 23.9394ZM96.1601 7.91941C95.9301 7.91941 90.8601 7.91941 90.8601 7.91941V15.7494C90.8601 15.7494 95.6001 15.7494 95.6901 15.7494C99.2801 15.7494 101.17 14.2294 101.17 11.7394C101.17 9.29941 99.4301 7.91941 96.1601 7.91941ZM96.0201 19.8394C95.9301 19.8394 90.8601 19.8394 90.8601 19.8394V27.6694C90.8601 27.6694 96.1101 27.6694 96.4301 27.6694C100.21 27.6694 102.05 26.3294 102.05 23.7094C102.05 20.8594 99.5601 19.8394 96.0201 19.8394Z" fill="white"></path><path d="M110.39 32.1895V1.42945L115.82 0.689453V32.1895H110.39Z" fill="white"></path><path d="M131.84 29.7495C130.32 31.5895 128.48 32.8795 125.85 32.8795C122.03 32.8795 119.26 30.2595 119.26 26.8895C119.26 22.9795 122.12 19.6595 131.83 19.3395V18.8295C131.83 15.9695 130.63 14.7795 127.59 14.7795C125.43 14.7795 122.8 15.7495 120.54 17.0395L119.44 12.7595C121.51 11.4695 124.83 10.2695 128.33 10.2695C134.87 10.2695 137.4 13.1695 137.26 19.0195V26.6195C137.26 28.2295 137.54 28.4595 139.15 28.5495L138.73 32.6495C134.68 33.1095 132.79 31.8695 132.01 29.7495H131.84ZM131.84 22.1895C126.55 22.8295 124.61 23.8895 124.61 26.1495C124.61 27.7595 125.85 28.9095 127.79 28.9095C129.49 28.9095 130.88 28.1295 131.84 27.0695V22.1895Z" fill="white"></path><path d="M150.77 32.8795C143.86 32.8795 139.76 28.5995 139.76 21.6395C139.76 14.7295 144.27 10.2695 150.95 10.2695C153.85 10.2695 156.34 10.9095 158.27 12.0695L157.12 16.4395C155.37 15.3395 153.34 14.7395 151.36 14.7395C147.45 14.7395 145.33 17.4095 145.33 21.5095C145.33 25.8395 147.77 28.3695 151.36 28.3695C153.57 28.3695 155.6 27.7695 157.25 26.7095L158.13 31.1295C156.3 32.2295 153.63 32.8795 150.77 32.8795Z" fill="white"></path><path d="M166.24 21.9597V32.1797H160.81V1.41969L166.24 0.679688V20.3897H166.33L173.93 10.9497H180.42L171.63 21.0297L180.47 32.1697H173.98L166.34 21.9497H166.24V21.9597Z" fill="white"></path><path d="M85.3301 67.1501V38.3701H104.95V43.1101H90.8601V50.3401H102.42V55.0801H90.8601V62.4001H104.95V67.1401H85.3301V67.1501Z" fill="white"></path><path d="M121.02 67.1497V54.2097C121.02 51.0797 119.78 50.0197 117.34 50.0197C115.45 50.0197 113.7 50.9897 112.64 51.9997V67.1497H107.21V46.0097L112.64 45.2697C112.64 45.2697 112.64 48.4897 112.64 48.6297C114.53 46.5597 117.06 45.2197 119.64 45.2197C123.92 45.2197 126.46 47.9797 126.46 52.5397V67.1397H121.02V67.1497Z" fill="white"></path><path d="M137.779 67.8398C133.039 67.8398 130.549 65.7699 130.729 60.6599L131.049 50.6698L127.729 50.2999L127.869 46.8499L131.189 45.7898L131.279 41.0898H136.529L136.439 46.0598H142.429L142.289 50.5298H136.119L135.839 60.3398C135.789 62.3198 136.809 63.2399 138.649 63.2399C139.749 63.2399 140.859 62.9599 141.969 62.5999L142.71 67.0199C141.1 67.5699 139.629 67.8398 137.779 67.8398Z" fill="white"></path><path d="M151.28 67.1495H145.85V46.0595L151.28 45.2795V48.7295C152.62 46.4695 154.32 45.2295 156.81 45.2295C158.1 45.2295 159.43 45.5095 160.59 46.1995L159.39 51.0795C158.38 50.5295 157.36 50.2495 156.35 50.2495C154.46 50.2495 152.71 51.4495 151.28 54.0295V67.1495Z" fill="white"></path><path d="M165.829 57.7095C166.059 61.1595 168.409 63.5095 172.179 63.5095C174.439 63.5095 176.879 62.7695 178.809 61.5795L179.499 66.0895C177.469 67.1995 174.659 67.8395 171.809 67.8395C164.989 67.8395 160.479 63.5095 160.479 56.7395C160.479 49.8295 165.079 45.2295 171.439 45.2295C177.059 45.2295 180.189 48.6395 180.189 53.8395C180.189 54.9895 180.009 56.4595 179.729 57.3895C179.679 57.3895 165.82 57.5695 165.82 57.5695V57.7095H165.829ZM175.089 54.3495C175.089 54.2595 175.089 54.0295 175.089 53.9795C175.089 51.1295 173.849 49.3295 171.039 49.3295C168.049 49.3295 166.249 51.7695 165.969 54.3995L175.089 54.3495Z" fill="white"></path><path d="M194.24 45.2295C199.86 45.2295 203.54 49.7895 203.54 56.3295C203.54 63.0995 198.84 67.7995 192.81 67.7995C191.43 67.7995 189.63 67.6195 188.3 67.1995V77.2795H182.87V46.0095L188.3 45.2695C188.3 45.2695 188.3 47.7995 188.3 47.9395C189.73 46.5695 191.67 45.2295 194.24 45.2295ZM188.3 62.2695C189.31 63.0495 190.69 63.4695 192.31 63.4695C195.95 63.4695 198.02 60.5195 198.02 56.5595C198.02 52.4195 196.04 49.7895 192.68 49.7895C190.88 49.7895 189.5 50.4795 188.31 51.5395C188.3 51.3995 188.3 62.2695 188.3 62.2695Z" fill="white"></path><path d="M211.7 67.1495H206.27V46.0595L211.7 45.2795V48.7295C213.04 46.4695 214.74 45.2295 217.23 45.2295C218.52 45.2295 219.85 45.5095 221.01 46.1995L219.81 51.0795C218.8 50.5295 217.78 50.2495 216.77 50.2495C214.88 50.2495 213.13 51.4495 211.7 54.0295V67.1495Z" fill="white"></path><path d="M225.6 57.7095C225.83 61.1595 228.18 63.5095 231.95 63.5095C234.21 63.5095 236.65 62.7695 238.58 61.5795L239.27 66.0895C237.24 67.1995 234.43 67.8395 231.58 67.8395C224.76 67.8395 220.25 63.5095 220.25 56.7395C220.25 49.8295 224.85 45.2295 231.21 45.2295C236.83 45.2295 239.96 48.6395 239.96 53.8395C239.96 54.9895 239.78 56.4595 239.5 57.3895C239.45 57.3895 225.59 57.5695 225.59 57.5695V57.7095H225.6ZM234.86 54.3495C234.86 54.2595 234.86 54.0295 234.86 53.9795C234.86 51.1295 233.62 49.3295 230.81 49.3295C227.82 49.3295 226.02 51.7695 225.74 54.3995L234.86 54.3495Z" fill="white"></path><path d="M256.46 67.1497V54.2097C256.46 51.0797 255.22 50.0197 252.78 50.0197C250.89 50.0197 249.14 50.9897 248.08 51.9997V67.1497H242.65V46.0097L248.08 45.2697C248.08 45.2697 248.08 48.4897 248.08 48.6297C249.97 46.5597 252.5 45.2197 255.08 45.2197C259.36 45.2197 261.9 47.9797 261.9 52.5397V67.1397H256.46V67.1497Z" fill="white"></path><path d="M268.89 57.7095C269.12 61.1595 271.47 63.5095 275.24 63.5095C277.5 63.5095 279.94 62.7695 281.87 61.5795L282.56 66.0895C280.53 67.1995 277.72 67.8395 274.87 67.8395C268.05 67.8395 263.54 63.5095 263.54 56.7395C263.54 49.8295 268.14 45.2295 274.5 45.2295C280.12 45.2295 283.25 48.6395 283.25 53.8395C283.25 54.9895 283.07 56.4595 282.79 57.3895C282.74 57.3895 268.88 57.5695 268.88 57.5695V57.7095H268.89ZM278.15 54.3495C278.15 54.2595 278.15 54.0295 278.15 53.9795C278.15 51.1295 276.91 49.3295 274.1 49.3295C271.11 49.3295 269.31 51.7695 269.03 54.3995L278.15 54.3495Z" fill="white"></path><path d="M291.18 45.9297V58.8697C291.18 61.9997 292.47 63.0097 294.77 63.0097C296.7 63.0097 298.41 62.1397 299.42 61.1697V45.9297H304.85V67.0197L299.42 67.7597C299.42 67.7597 299.42 64.8097 299.42 64.6297C297.67 66.5197 295.14 67.8497 292.42 67.8497C288.28 67.8497 285.74 65.0897 285.74 60.5297V45.9297H291.18Z" fill="white"></path><path d="M313.33 67.1495H307.9V46.0595L313.33 45.2795V48.7295C314.67 46.4695 316.37 45.2295 318.86 45.2295C320.15 45.2295 321.48 45.5095 322.64 46.1995L321.44 51.0795C320.43 50.5295 319.41 50.2495 318.4 50.2495C316.51 50.2495 314.76 51.4495 313.33 54.0295V67.1495Z" fill="white"></path><path d="M330.65 67.8897C327.89 67.8897 324.53 67.1097 322.41 65.9097L323.61 61.6697C325.73 62.8697 328.45 63.6497 330.79 63.6497C332.91 63.6497 334.29 62.7797 334.29 61.2997C334.29 59.6397 332.49 59.0397 330.01 58.4397C326 57.5197 322.83 55.8597 322.83 51.8497C322.83 47.8397 326.19 45.2197 331.3 45.2197C333.92 45.2197 337.06 45.9097 339.04 46.9197L337.84 51.1597C335.77 50.0997 333.05 49.4097 331.16 49.4097C329.18 49.4097 327.98 50.1497 327.98 51.5297C327.98 53.1397 329.78 53.6897 332.26 54.2897C336.31 55.2597 339.49 56.8197 339.49 60.9697C339.49 64.9397 336.08 67.8897 330.65 67.8897Z" fill="white"></path><path d="M355.88 67.1494V54.2094C355.88 51.0794 354.64 50.0194 352.33 50.0194C350.3 50.0194 348.55 50.9894 347.49 51.9994V67.1494H342.06V36.3894L347.49 35.6494C347.49 35.6494 347.49 48.2694 347.49 48.5894C349.38 46.5194 351.91 45.2294 354.67 45.2294C358.77 45.2294 361.3 47.9894 361.3 52.5494V67.1494H355.88Z" fill="white"></path><path d="M367.86 42.0595C365.74 42.0595 364.54 40.7695 364.54 38.7895C364.54 36.8595 365.74 35.5195 367.86 35.5195C370.02 35.5195 371.22 36.8595 371.22 38.7895C371.22 40.7695 370.02 42.0595 367.86 42.0595ZM365.14 67.1495V46.0595L370.57 45.2795V67.1495H365.14Z" fill="white"></path><path d="M385.91 45.2295C391.53 45.2295 395.21 49.7895 395.21 56.3295C395.21 63.0995 390.51 67.7995 384.48 67.7995C383.1 67.7995 381.3 67.6195 379.97 67.1995V77.2795H374.54V46.0095L379.97 45.2695C379.97 45.2695 379.97 47.7995 379.97 47.9395C381.39 46.5695 383.33 45.2295 385.91 45.2295ZM379.97 62.2695C380.98 63.0495 382.36 63.4695 383.98 63.4695C387.62 63.4695 389.69 60.5195 389.69 56.5595C389.69 52.4195 387.71 49.7895 384.35 49.7895C382.55 49.7895 381.17 50.4795 379.98 51.5395C379.97 51.3995 379.97 62.2695 379.97 62.2695Z" fill="white"></path><path d="M107.12 104.44H101.46L99.07 97.6302H87.47L85.12 104.44H79.46L89.96 75.6602H96.77L107.12 104.44ZM93.3 80.4902L88.93 92.9702H97.63L93.3 80.4902Z" fill="white"></path><path d="M109.28 104.439V73.6794L114.71 72.9395V104.439H109.28Z" fill="white"></path><path d="M118.67 104.439V73.6794L124.1 72.9395V104.439H118.67Z" fill="white"></path><path d="M130.79 79.3398C128.67 79.3398 127.47 78.0498 127.47 76.0698C127.47 74.1398 128.67 72.7998 130.79 72.7998C132.95 72.7998 134.15 74.1398 134.15 76.0698C134.15 78.0498 132.95 79.3398 130.79 79.3398ZM128.07 104.44V83.3498L133.5 82.5698V104.44H128.07Z" fill="white"></path><path d="M148.61 102C147.09 103.84 145.25 105.13 142.62 105.13C138.8 105.13 136.03 102.51 136.03 99.1395C136.03 95.2295 138.89 91.9095 148.6 91.5895V91.0795C148.6 88.2195 147.4 87.0295 144.36 87.0295C142.2 87.0295 139.57 87.9995 137.31 89.2895L136.21 85.0095C138.28 83.7195 141.6 82.5195 145.1 82.5195C151.64 82.5195 154.17 85.4195 154.03 91.2695V98.8695C154.03 100.48 154.31 100.71 155.92 100.8L155.51 104.9C151.46 105.36 149.57 104.12 148.79 102H148.61ZM148.61 94.4395C143.32 95.0795 141.38 96.1395 141.38 98.3995C141.38 100.01 142.62 101.16 144.56 101.16C146.26 101.16 147.65 100.38 148.61 99.3195V94.4395Z" fill="white"></path><path d="M171.59 104.44V91.4998C171.59 88.3698 170.35 87.3098 167.91 87.3098C166.02 87.3098 164.27 88.2798 163.21 89.2898V104.44H157.78V83.2998L163.21 82.5598C163.21 82.5598 163.21 85.7798 163.21 85.9198C165.1 83.8498 167.63 82.5098 170.21 82.5098C174.49 82.5098 177.03 85.2698 177.03 89.8298V104.43H171.59V104.44Z" fill="white"></path><path d="M189.68 105.13C182.77 105.13 178.67 100.85 178.67 93.8895C178.67 86.9795 183.18 82.5195 189.86 82.5195C192.76 82.5195 195.25 83.1595 197.18 84.3195L196.03 88.6895C194.28 87.5895 192.25 86.9895 190.27 86.9895C186.36 86.9895 184.24 89.6595 184.24 93.7595C184.24 98.0895 186.68 100.62 190.27 100.62C192.48 100.62 194.51 100.02 196.16 98.9595L197.04 103.38C195.21 104.48 192.54 105.13 189.68 105.13Z" fill="white"></path><path d="M202.9 94.9995C203.13 98.4495 205.48 100.8 209.25 100.8C211.51 100.8 213.95 100.06 215.88 98.8695L216.57 103.38C214.54 104.49 211.73 105.13 208.88 105.13C202.06 105.13 197.55 100.8 197.55 94.0295C197.55 87.1195 202.15 82.5195 208.51 82.5195C214.13 82.5195 217.26 85.9295 217.26 91.1295C217.26 92.2795 217.08 93.7495 216.8 94.6795C216.75 94.6795 202.89 94.8595 202.89 94.8595V94.9995H202.9ZM212.16 91.6295C212.16 91.5395 212.16 91.3095 212.16 91.2595C212.16 88.4095 210.92 86.6095 208.11 86.6095C205.12 86.6095 203.32 89.0495 203.04 91.6795L212.16 91.6295Z" fill="white"></path><path d="M221.92 105.129C219.76 105.129 218.24 103.559 218.24 101.539C218.24 99.5092 219.76 97.9893 221.92 97.9893C224.04 97.9893 225.51 99.5092 225.51 101.539C225.51 103.559 224.04 105.129 221.92 105.129Z" fill="white"></path></svg>
